<svg width="24" height="24" viewBox="0 0 24 24" fill="none" xmlns="http://www.w3.org/2000/svg">
<path d="M0 19.3993C0 17.6238 1.43934 16.1844 3.21485 16.1844H22.0268C22.9146 16.1844 23.6343 16.9041 23.6343 17.7919V23.1206H1.60742C0.719668 23.1206 0 22.4009 0 21.5132V19.3993Z" fill="#0070DF"/>
<path d="M5.39478 11.1786C5.39478 9.40308 6.83411 7.96375 8.60962 7.96375H22.0268C22.9146 7.96375 23.6343 8.68341 23.6343 9.57117V15.1568H7.0022C6.11444 15.1568 5.39478 14.4371 5.39478 13.5494V11.1786Z" fill="#00AEFF"/>
<path d="M12.3309 3.21485C12.3309 1.43934 13.7703 0 15.5458 0H22.0269C22.9146 0 23.6343 0.719668 23.6343 1.60742V6.93614H13.9384C13.0506 6.93614 12.3309 6.21647 12.3309 5.32872V3.21485Z" fill="#69DAFD"/>
</svg>
