<svg width="183" height="24" viewBox="0 0 183 24" fill="none" xmlns="http://www.w3.org/2000/svg">
<path d="M35.9884 1.23798C37.7149 1.23798 39.2132 1.53565 40.4832 2.13099C41.7731 2.72633 42.7555 3.58958 43.4302 4.72073C44.1247 5.83204 44.472 7.15171 44.472 8.67976C44.472 10.2078 44.1247 11.5374 43.4302 12.6685C42.7555 13.7799 41.7731 14.6332 40.4832 15.2285C39.2132 15.8239 37.7149 16.1215 35.9884 16.1215H31.7019V22.075H27.7131V1.23798H35.9884ZM35.78 12.6685C37.3081 12.6685 38.469 12.3213 39.2628 11.6267C40.0566 10.9321 40.4535 9.94982 40.4535 8.67976C40.4535 7.40969 40.0566 6.42738 39.2628 5.73281C38.469 5.03825 37.3081 4.69096 35.78 4.69096H31.7019V12.6685H35.78Z" fill="#585858"/>
<path d="M55.8258 16.0322C55.7068 16.0521 55.5282 16.062 55.29 16.062H51.0036V22.075H47.0148V1.23798H55.29C57.0165 1.23798 58.5148 1.53565 59.7849 2.13099C61.0748 2.72633 62.0571 3.58958 62.7318 4.72073C63.4264 5.83204 63.7737 7.15171 63.7737 8.67976C63.7737 10.2475 63.4065 11.5969 62.6723 12.7281C61.9579 13.8592 60.9359 14.7026 59.6063 15.2583L64.1309 22.075H59.8444L55.8258 16.0322ZM55.0817 12.6983C56.5899 12.6983 57.7409 12.351 58.5347 11.6565C59.3483 10.9421 59.7551 9.94982 59.7551 8.67976C59.7551 7.40969 59.3582 6.42738 58.5644 5.73281C57.7706 5.03825 56.6097 4.69096 55.0817 4.69096H51.0036V12.6983H55.0817Z" fill="#585858"/>
<path d="M75.887 22.4024C73.8629 22.4024 72.0371 21.936 70.4099 21.0033C68.7826 20.0706 67.5026 18.7906 66.5699 17.1634C65.6372 15.5163 65.1709 13.6806 65.1709 11.6565C65.1709 9.6323 65.6372 7.80659 66.5699 6.17932C67.5026 4.53221 68.7826 3.2423 70.4099 2.3096C72.0371 1.37689 73.8629 0.910541 75.887 0.910541C77.9112 0.910541 79.7369 1.37689 81.3642 2.3096C83.0113 3.2423 84.3012 4.52228 85.2339 6.14955C86.1666 7.77682 86.6329 9.61246 86.6329 11.6565C86.6329 13.7005 86.1666 15.5361 85.2339 17.1634C84.3012 18.7906 83.0113 20.0706 81.3642 21.0033C79.7369 21.936 77.9112 22.4024 75.887 22.4024ZM75.887 18.8006C77.1571 18.8006 78.2982 18.5029 79.3102 17.9076C80.3422 17.2924 81.1459 16.439 81.7214 15.3476C82.3167 14.2561 82.6144 13.0258 82.6144 11.6565C82.6144 10.2872 82.3167 9.0568 81.7214 7.96534C81.1459 6.87388 80.3422 6.03048 79.3102 5.43514C78.2982 4.81995 77.1571 4.51236 75.887 4.51236C74.6368 4.51236 73.4957 4.81995 72.4638 5.43514C71.4517 6.03048 70.648 6.87388 70.0527 7.96534C69.4772 9.0568 69.1894 10.2872 69.1894 11.6565C69.1894 13.0258 69.4772 14.2561 70.0527 15.3476C70.648 16.439 71.4517 17.2924 72.4638 17.9076C73.4957 18.5029 74.6368 18.8006 75.887 18.8006Z" fill="#585858"/>
<path d="M107.345 8.56069L101.034 19.7531H99.2483L92.9674 8.79882V22.075H89.2168V1.23798H92.4911L100.201 14.782L107.791 1.23798H111.066L111.096 22.075H107.375L107.345 8.56069Z" fill="#585858"/>
<path d="M112.618 4.69096V1.23798H129.556V4.69096H123.096V22.075H119.107V4.69096H112.618Z" fill="#0070DF"/>
<path d="M139.756 16.0322C139.637 16.0521 139.458 16.062 139.22 16.062H134.934V22.075H130.945V1.23798H139.22C140.947 1.23798 142.445 1.53565 143.715 2.13099C145.005 2.72633 145.987 3.58958 146.662 4.72073C147.357 5.83204 147.704 7.15171 147.704 8.67976C147.704 10.2475 147.337 11.5969 146.603 12.7281C145.888 13.8592 144.866 14.7026 143.537 15.2583L148.061 22.075H143.775L139.756 16.0322ZM139.012 12.6983C140.52 12.6983 141.671 12.351 142.465 11.6565C143.279 10.9421 143.685 9.94982 143.685 8.67976C143.685 7.40969 143.289 6.42738 142.495 5.73281C141.701 5.03825 140.54 4.69096 139.012 4.69096H134.934V12.6983H139.012Z" fill="#0070DF"/>
<path d="M165.354 22.075H150.351V1.23798H164.967V4.63143H154.31V9.84067H163.747V13.1448H154.31V18.6815H165.354V22.075Z" fill="#0070DF"/>
<path d="M183.007 22.075H168.005V1.23798H182.62V4.63143H171.964V9.84067H181.4V13.1448H171.964V18.6815H183.007V22.075Z" fill="#0070DF"/>
<path d="M0 19.3993C0 17.6238 1.43934 16.1844 3.21485 16.1844H22.0268C22.9146 16.1844 23.6343 16.9041 23.6343 17.7919V23.1206H1.60742C0.719668 23.1206 0 22.4009 0 21.5132V19.3993Z" fill="#0070DF"/>
<path d="M5.39478 11.1786C5.39478 9.40308 6.83411 7.96375 8.60962 7.96375H22.0268C22.9146 7.96375 23.6343 8.68341 23.6343 9.57117V15.1568H7.0022C6.11444 15.1568 5.39478 14.4371 5.39478 13.5494V11.1786Z" fill="#00AEFF"/>
<path d="M12.3309 3.21485C12.3309 1.43934 13.7703 0 15.5458 0H22.0269C22.9146 0 23.6343 0.719668 23.6343 1.60742V6.93614H13.9384C13.0506 6.93614 12.3309 6.21647 12.3309 5.32872V3.21485Z" fill="#69DAFD"/>
</svg>
